<?xml version="1.0" encoding="UTF-8"?>
<svg xmlns="http://www.w3.org/2000/svg" xmlns:xlink="http://www.w3.org/1999/xlink" width="60px" height="80px" viewBox="0 0 60 80" version="1.1">
<g id="surface1">
<path style=" stroke:none;fill-rule:nonzero;fill:rgb(100%,0%,0%);fill-opacity:1;" d="M 33.703125 78 C 41.71875 67.96875 60 43.65625 60 30 C 60 13.4375 46.5625 0 30 0 C 13.4375 0 0 13.4375 0 30 C 0 43.65625 18.28125 67.96875 26.296875 78 C 28.21875 80.390625 31.78125 80.390625 33.703125 78 Z M 30 20 C 35.523438 20 40 24.476562 40 30 C 40 35.523438 35.523438 40 30 40 C 24.476562 40 20 35.523438 20 30 C 20 24.476562 24.476562 20 30 20 Z M 30 20 "/>
</g>
</svg>
